<?xml version="1.0" encoding="UTF-8" standalone="no"?>
<!-- Created with Inkscape (http://www.inkscape.org/) -->

<svg
   width="135.5778mm"
   height="133.18805mm"
   viewBox="0 0 135.5778 133.18805"
   version="1.1"
   id="svg1"
   xml:space="preserve"
   xmlns:xlink="http://www.w3.org/1999/xlink"
   xmlns="http://www.w3.org/2000/svg"
   xmlns:svg="http://www.w3.org/2000/svg"><defs
     id="defs1"><linearGradient
       id="linearGradient20"><stop
         style="stop-color:#009966;stop-opacity:1;"
         offset="0"
         id="stop20" /><stop
         style="stop-color:#001d0c;stop-opacity:1;"
         offset="1"
         id="stop21" /></linearGradient><linearGradient
       xlink:href="#linearGradient20"
       id="linearGradient21"
       x1="39.112404"
       y1="169.75182"
       x2="174.6902"
       y2="169.75182"
       gradientUnits="userSpaceOnUse" /></defs><g
     id="layer1"
     transform="translate(-39.112405,-103.15781)"><path
       style="fill:url(#linearGradient21);fill-opacity:1;fill-rule:nonzero"
       d="m 100.91649,236.20329 c -12.07414,-1.02833 -25.149102,-5.96294 -35.606825,-13.43836 -4.827091,-3.45051 -10.344497,-9.26862 -14.661704,-15.46077 -1.821137,-2.61205 -5.154021,-8.51618 -5.884859,-10.42489 l -0.424826,-1.10951 3.932833,-4.67644 c 2.163057,-2.57204 5.047176,-6.00183 6.409152,-7.62174 3.440215,-4.09175 9.238996,-10.9015 10.380757,-12.19056 1.928051,-2.17679 6.621237,-7.87887 8.079487,-9.81633 0.826517,-1.09813 1.593106,-1.90194 1.703532,-1.78625 0.547638,0.57372 7.654695,15.13747 7.654695,15.68596 0,0.11663 -2.827734,0.26709 -6.283854,0.33436 -6.876995,0.13386 -8.065292,0.32881 -11.178646,1.8339 -1.217306,0.58848 -2.338235,1.45649 -3.836458,2.97084 l -2.116667,2.13944 12.985407,0.0686 12.985406,0.0686 0.757118,1.65118 c 0.416414,0.90814 1.518864,3.25852 2.449889,5.22305 0.931024,1.96453 1.854797,3.95883 2.052829,4.43177 0.198032,0.47294 0.469224,0.8599 0.602649,0.8599 0.229432,0 1.592938,-1.55147 8.487306,-9.6573 l 2.925519,-3.43958 0.007,-4.03489 0.007,-4.0349 h 5.92496 5.92498 l 2.09899,-2.84427 c 2.72612,-3.69406 3.77816,-5.25449 3.77816,-5.60392 0,-0.19725 -4.009,-0.28306 -13.22402,-0.28306 H 93.6215 l -0.07131,5.75469 -0.07131,5.75468 -1.219331,-2.51354 c -0.670632,-1.38244 -3.191303,-6.68073 -5.60149,-11.77395 -4.732138,-10 -5.534922,-11.57525 -6.383893,-12.52671 -1.804285,-2.02209 -6.077972,-2.36728 -8.655071,-0.69908 -0.526736,0.34097 -2.246536,2.2061 -3.821778,4.14474 -1.575242,1.93864 -5.674703,6.79901 -9.109912,10.80084 -15.541557,18.10502 -17.488291,20.35686 -17.725362,20.50338 -0.138613,0.0857 -0.314138,-0.117 -0.390056,-0.45038 -1.884993,-8.27746 -1.94825,-18.63048 -0.166171,-27.19675 1.188919,-5.71502 2.689659,-10.05076 5.449051,-15.74271 8.390458,-17.30745 24.140112,-30.31435 42.956777,-35.47598 16.680876,-4.57575 34.112936,-2.75643 49.394996,5.15518 10.62071,5.4984 19.15084,13.23273 25.82962,23.41991 10.85569,16.55824 13.59602,37.4818 7.38852,56.4144 -4.70442,14.34827 -15.34668,27.59205 -28.7334,35.75734 -8.11923,4.95237 -18.03192,8.38829 -27.64896,9.58364 -3.06344,0.38077 -10.93174,0.51748 -14.12599,0.24544 z m 59.36974,-48.75448 c 0,-0.29803 -17.39646,-16.8097 -19.23075,-18.25268 -0.33715,-0.26522 -0.613,-0.63509 -0.613,-0.82194 0,-0.18685 1.80725,-1.87485 4.01611,-3.75111 2.20886,-1.87626 4.97706,-4.24943 6.15156,-5.27371 1.1745,-1.02427 2.50581,-2.15536 2.95846,-2.51354 1.87375,-1.48267 10.29679,-8.82011 10.38447,-9.04608 0.15999,-0.41233 -13.20249,-0.1411 -13.94724,0.2831 -0.34271,0.1952 -1.72108,1.26677 -3.06304,2.38125 -1.34197,1.11449 -7.58025,6.29459 -13.86284,11.51133 l -11.42289,9.48499 v 7.91136 c 0,4.92983 0.0966,7.91137 0.25641,7.91137 0.27111,0 5.56478,-3.5354 7.17477,-4.7917 1.04464,-0.81514 3.11273,-3.74827 3.79002,-5.37528 l 0.43246,-1.03885 3.36549,3.28781 c 1.85102,1.8083 3.42792,3.34734 3.50422,3.4201 0.0763,0.0728 1.28153,1.23362 2.67828,2.57969 l 2.53957,2.4474 h 7.44397 c 6.03463,0 7.44397,-0.0669 7.44397,-0.35351 z M 131.6875,155.98617 c 0.20248,-0.32742 1.60034,-2.22953 3.10636,-4.22691 1.50601,-1.99737 2.73821,-3.69401 2.73821,-3.77031 0,-0.0763 -9.82266,-0.13872 -21.82813,-0.13872 H 93.875815 v 4.36563 4.36562 h 18.721775 18.72177 z"
       id="path1" /></g></svg>
